<?xml version="1.0" standalone="no"?>
<!DOCTYPE svg PUBLIC "-//W3C//DTD SVG 20010904//EN"
 "http://www.w3.org/TR/2001/REC-SVG-20010904/DTD/svg10.dtd">
<svg version="1.0" xmlns="http://www.w3.org/2000/svg"
 width="1280.000000pt" height="720.000000pt" viewBox="0 0 1280.000000 720.000000"
 preserveAspectRatio="xMidYMid meet">

<g transform="translate(0.000000,720.000000) scale(0.100000,-0.100000)"
fill="#000000" stroke="none">
<path d="M9114 6816 c-98 -19 -136 -32 -229 -79 -106 -54 -245 -190 -295 -290
-19 -37 -39 -66 -45 -64 -48 17 -1486 349 -1491 344 -4 -3 -138 -406 -298
-894 l-292 -888 -84 -7 c-47 -3 -155 -11 -240 -18 -438 -32 -906 -135 -1304
-287 l-89 -34 -28 33 c-16 18 -54 71 -86 117 -32 46 -81 109 -109 140 -28 31
-59 72 -69 91 -10 19 -50 73 -90 120 -40 47 -82 103 -93 125 -12 22 -39 63
-61 90 -22 28 -49 66 -60 85 -10 20 -30 42 -44 49 -13 7 -35 31 -47 54 -13 22
-57 77 -98 121 -80 86 -260 309 -356 441 -33 44 -82 105 -110 135 -48 52 -96
114 -141 182 -11 17 -42 55 -69 85 -42 46 -54 54 -80 51 -50 -5 -47 -41 8 -89
25 -22 55 -57 68 -78 39 -64 91 -133 144 -191 28 -30 84 -100 124 -155 109
-148 246 -318 345 -425 48 -52 95 -112 106 -132 11 -21 31 -45 45 -55 14 -9
37 -33 50 -52 13 -20 44 -64 68 -99 25 -34 52 -75 61 -91 8 -17 44 -63 79
-103 35 -40 73 -91 84 -113 11 -22 37 -56 57 -75 21 -19 57 -64 80 -100 23
-36 65 -94 93 -130 50 -63 51 -65 29 -74 -71 -30 -326 -161 -405 -209 l-93
-56 -62 46 c-203 149 -456 205 -702 154 -173 -36 -320 -115 -445 -241 -136
-136 -212 -284 -251 -494 -20 -109 -21 -126 -9 -205 36 -240 120 -412 271
-557 35 -33 83 -73 106 -88 42 -28 42 -28 35 -75 -4 -25 -7 -134 -6 -241 0
-176 3 -207 28 -315 99 -430 375 -839 775 -1150 57 -44 115 -89 129 -101 l25
-21 -60 -46 c-33 -25 -88 -62 -122 -82 -35 -21 -93 -63 -129 -94 -37 -31 -80
-66 -97 -78 -43 -29 -218 -80 -300 -86 -38 -3 -90 -13 -115 -22 -57 -21 -179
-42 -295 -50 -94 -7 -226 -51 -253 -83 -29 -37 1 -99 36 -74 51 37 130 65 206
73 174 18 261 32 315 51 31 10 88 22 126 25 70 5 271 62 311 88 11 7 58 45
103 83 45 38 105 82 134 97 29 16 88 56 132 90 l81 63 79 -50 c552 -342 1260
-554 2025 -608 315 -22 362 -23 537 -11 520 36 867 93 1238 206 66 20 121 33
122 28 2 -4 11 -20 21 -34 9 -14 31 -48 49 -75 18 -27 60 -76 94 -109 33 -33
67 -72 75 -86 18 -35 93 -99 115 -99 37 0 62 34 67 92 5 70 -9 100 -46 96 -21
-2 -29 -11 -38 -43 l-11 -40 -25 40 c-14 22 -51 67 -83 100 -32 33 -69 78 -83
100 -14 22 -35 50 -46 62 -11 13 -18 25 -15 27 2 2 69 29 149 61 168 66 459
212 608 305 564 352 941 832 1060 1345 40 173 52 431 26 561 -5 27 0 33 65 78
300 204 442 586 351 942 -102 399 -473 678 -882 662 -84 -3 -86 -2 -70 16 9
10 50 36 90 58 41 23 86 51 102 64 15 13 34 24 42 24 8 0 23 9 34 21 10 11 32
27 49 35 16 7 37 18 45 23 8 5 42 20 75 34 33 14 92 39 131 56 39 17 77 31 84
31 7 0 28 11 46 25 18 14 37 25 43 25 5 0 31 11 57 25 26 14 53 25 61 25 8 0
33 11 56 24 23 14 69 32 102 41 40 12 100 44 178 96 65 44 121 79 124 79 2 0
23 15 46 34 23 18 67 46 97 61 30 15 63 34 73 43 9 8 26 20 36 26 80 46 129
77 213 135 54 36 128 83 165 104 38 21 82 51 98 67 17 16 42 32 57 35 14 4 34
15 44 26 9 10 23 19 30 19 7 0 24 14 38 31 21 24 24 34 16 50 -14 25 -45 23
-95 -6 -22 -13 -53 -31 -70 -41 -16 -9 -47 -32 -67 -50 -21 -18 -61 -45 -90
-60 -29 -15 -96 -57 -150 -95 -54 -38 -115 -78 -136 -88 -20 -11 -59 -36 -87
-55 -27 -19 -77 -49 -110 -67 -33 -17 -75 -42 -93 -56 -117 -88 -302 -201
-347 -212 -27 -7 -68 -23 -90 -35 -22 -13 -58 -29 -80 -36 -39 -13 -105 -43
-135 -61 -27 -17 -112 -54 -270 -119 -41 -17 -84 -36 -95 -42 -11 -7 -36 -20
-57 -30 -20 -10 -38 -21 -40 -26 -1 -5 -15 -15 -30 -23 -14 -8 -46 -27 -70
-42 -24 -16 -70 -46 -103 -67 -33 -22 -98 -68 -144 -104 -46 -36 -122 -84
-169 -108 -46 -24 -111 -65 -144 -91 -33 -27 -63 -47 -66 -45 -4 2 -62 36
-130 76 -418 250 -962 437 -1521 522 -163 25 -415 50 -502 50 -38 0 -69 3 -69
6 0 6 472 1447 475 1452 1 1 284 -64 627 -144 l625 -147 7 -75 c7 -88 50 -220
97 -298 76 -125 215 -245 346 -299 282 -114 607 -42 810 179 122 133 182 278
191 457 6 137 -14 231 -75 358 -38 80 -59 108 -137 186 -70 71 -110 101 -173
134 -145 74 -313 103 -449 77z m290 -324 c276 -129 341 -482 129 -699 -93 -96
-243 -147 -369 -126 -260 45 -424 289 -359 536 21 80 46 125 104 189 52 56
139 111 207 128 22 5 80 8 130 6 78 -3 102 -8 158 -34z m-2574 -1852 c653 -38
1247 -191 1750 -452 75 -38 144 -77 155 -85 18 -13 19 -15 3 -24 -45 -25 -182
-134 -253 -200 -44 -41 -102 -87 -130 -103 -27 -16 -66 -41 -85 -56 -19 -14
-90 -64 -157 -109 l-122 -83 -58 23 c-48 19 -78 23 -173 23 -102 0 -123 -3
-183 -27 -146 -57 -259 -167 -319 -307 -29 -69 -32 -85 -35 -195 l-2 -120
-148 -92 c-156 -97 -235 -140 -319 -172 l-51 -19 -43 66 c-24 37 -61 87 -83
112 -21 25 -49 65 -62 90 -13 25 -33 54 -45 65 -12 11 -33 39 -47 62 -14 24
-28 43 -33 43 -16 0 -167 105 -218 151 -30 27 -77 64 -106 82 -74 45 -139 93
-217 159 -37 32 -92 75 -122 96 -160 112 -501 458 -640 651 -26 36 -66 85 -89
108 -48 49 -53 44 109 97 539 173 1141 249 1723 216z m-1904 -352 c28 -29 69
-78 90 -108 87 -123 389 -445 560 -597 l59 -52 -60 20 c-191 66 -402 14 -551
-135 -82 -83 -126 -164 -150 -276 -54 -257 103 -523 361 -608 360 -120 731
166 702 542 -6 87 -42 197 -86 261 -17 25 -31 48 -31 50 0 6 80 -52 130 -93
19 -15 55 -40 80 -55 25 -14 73 -50 107 -80 34 -30 95 -76 137 -102 42 -27 76
-52 76 -57 0 -5 20 -30 44 -56 24 -26 54 -67 66 -92 12 -25 41 -66 64 -91 53
-60 99 -136 93 -153 -3 -8 -36 -24 -74 -36 -37 -12 -84 -31 -103 -42 -19 -11
-73 -37 -120 -57 -110 -48 -370 -196 -485 -276 -49 -34 -137 -86 -194 -115
-57 -28 -127 -69 -156 -91 -28 -21 -98 -61 -156 -88 -57 -27 -129 -66 -159
-85 -30 -20 -70 -45 -87 -57 -18 -12 -33 -24 -33 -29 0 -4 -35 -29 -77 -56
-43 -27 -107 -77 -143 -110 -36 -34 -137 -109 -225 -167 -88 -57 -189 -130
-225 -161 -36 -30 -69 -56 -73 -56 -4 0 -42 23 -83 50 -270 183 -527 451 -666
696 -237 415 -250 881 -37 1307 142 282 354 513 704 764 72 52 232 146 345
203 100 51 289 138 300 139 3 1 28 -23 56 -51z m-1241 -83 c39 -8 103 -31 144
-51 l75 -37 -25 -19 c-213 -170 -422 -403 -550 -616 -44 -71 -120 -225 -143
-287 -7 -18 -14 -14 -62 40 -31 33 -71 91 -90 130 -218 443 168 941 651 840z
m6049 -5 c113 -29 190 -73 277 -160 164 -162 215 -379 143 -600 -28 -85 -95
-191 -157 -246 l-41 -37 -10 24 c-74 181 -187 375 -304 523 -74 93 -237 261
-324 333 -37 31 -67 62 -65 67 6 19 125 76 198 96 96 25 187 25 283 0z m-832
-202 c476 -341 735 -694 828 -1128 44 -203 28 -460 -41 -670 -97 -298 -319
-601 -614 -840 -248 -202 -602 -394 -957 -521 l-107 -38 -20 34 c-11 19 -24
35 -30 35 -5 0 -18 20 -30 45 -12 25 -26 45 -31 45 -5 0 -16 15 -24 34 -8 19
-21 38 -29 42 -8 5 -22 25 -32 44 -10 19 -38 67 -64 105 -26 39 -52 82 -58 97
-7 16 -26 31 -47 39 l-35 12 72 50 c94 64 174 143 188 185 34 104 -74 216
-178 182 -19 -7 -57 -32 -85 -57 -27 -24 -74 -60 -103 -79 -62 -42 -76 -38
-115 26 -14 23 -40 62 -59 87 -18 26 -48 69 -66 97 -18 28 -51 68 -73 88 -26
24 -48 57 -61 93 -30 79 -55 127 -81 150 -29 26 -148 196 -180 256 -14 26 -44
74 -66 107 l-41 59 72 30 c39 17 147 76 239 132 92 55 170 101 174 101 4 0 20
-26 37 -58 66 -127 215 -234 370 -267 88 -18 122 -18 209 0 146 31 266 113
348 239 55 85 78 168 78 280 0 159 -43 266 -152 381 l-67 71 130 89 c71 50
159 108 194 131 36 22 91 65 123 95 100 97 283 237 311 238 7 1 40 -18 73 -41z
m-2160 -1533 c26 -39 51 -79 54 -90 9 -27 139 -212 180 -255 30 -32 44 -59 99
-188 11 -24 35 -56 54 -70 19 -15 53 -56 77 -92 23 -36 53 -81 66 -100 63 -92
89 -132 86 -135 -2 -1 -36 -14 -76 -29 -167 -60 -432 -96 -702 -96 -484 0
-823 94 -1031 286 -63 58 -114 73 -174 50 -54 -21 -86 -62 -92 -120 -7 -61 18
-106 91 -168 201 -169 433 -262 781 -315 171 -25 678 -26 848 0 155 23 323 66
435 111 l91 37 21 -21 c11 -11 31 -20 45 -20 18 0 29 -9 41 -32 9 -18 29 -49
44 -68 24 -30 46 -67 116 -191 6 -11 20 -30 31 -42 11 -12 27 -35 37 -52 10
-16 30 -42 44 -57 14 -15 24 -29 21 -31 -6 -6 -192 -54 -309 -81 -554 -127
-1201 -149 -1790 -61 -366 54 -731 156 -1052 295 -159 68 -388 187 -388 200 0
17 124 113 265 205 83 54 179 124 213 157 35 32 96 80 135 106 40 26 101 70
136 99 37 31 121 80 200 119 75 36 159 83 187 104 28 21 100 63 160 93 61 30
130 70 155 89 97 74 399 248 517 298 39 16 86 38 104 49 18 10 63 28 99 40 36
12 75 28 85 36 30 23 45 14 96 -60z"/>
</g>
</svg>
